<svg width="248" height="237" viewBox="0 0 248 237" fill="none" xmlns="http://www.w3.org/2000/svg">
<path fill-rule="evenodd" clip-rule="evenodd" d="M124 189.42V0.124756C127.606 0.124756 131.212 2.19775 132.56 6.34351L155.656 77.4287C156.861 81.1367 160.317 83.6475 164.216 83.6475H238.959C247.678 83.6475 251.303 94.804 244.25 99.9287L183.781 143.862C180.626 146.153 179.306 150.216 180.511 153.924L203.608 225.009C206.302 233.301 196.812 240.196 189.759 235.071L129.29 191.138C127.713 189.993 125.856 189.42 124 189.42Z" fill="#C4C4C4"/>
<path fill-rule="evenodd" clip-rule="evenodd" d="M124.023 189.363V0C120.417 7.0408e-06 116.811 2.07295 115.464 6.21884L92.3559 77.338C91.1511 81.0462 87.6955 83.5568 83.7964 83.5568H9.01735C0.298841 83.5568 -3.32614 94.7134 3.72728 99.838L64.2248 143.792C67.3792 146.084 68.6991 150.146 67.4943 153.854L44.3863 224.973C41.6921 233.265 51.1824 240.16 58.2358 235.036L118.733 191.082C120.311 189.936 122.167 189.363 124.023 189.363Z" fill="#603224"/>
</svg>
