<svg width="224" height="215" viewBox="0 0 224 215" fill="none" xmlns="http://www.w3.org/2000/svg">
<path fill-rule="evenodd" clip-rule="evenodd" d="M112 177.295V0C118.01 7.45708e-06 124.021 3.45493 126.266 10.3648L142.309 59.7417C144.318 65.922 150.077 70.1064 156.575 70.1064H208.493C223.024 70.1064 229.066 88.7007 217.31 97.2417L175.307 127.758C170.05 131.578 167.85 138.348 169.858 144.529L185.902 193.906C190.392 207.725 174.575 219.217 162.819 210.676L120.817 180.16C118.188 178.25 115.094 177.295 112 177.295Z" fill="#C4C4C4"/>
<path fill-rule="evenodd" clip-rule="evenodd" d="M111.965 177.939V0C105.955 -1.79237e-05 99.9443 3.4549 97.6992 10.3647L81.5511 60.0636C79.5429 66.2439 73.7836 70.4283 67.2852 70.4283H15.0288C0.497925 70.4283 -5.54371 89.0226 6.212 97.5636L48.4883 128.279C53.7457 132.099 55.9455 138.869 53.9374 145.05L37.7893 194.748C33.299 208.568 49.1162 220.06 60.8719 211.519L103.148 180.803C105.777 178.894 108.871 177.939 111.965 177.939Z" fill="#DBB89A"/>
</svg>
