<svg width="224" height="215" viewBox="0 0 224 215" fill="none" xmlns="http://www.w3.org/2000/svg">
<path d="M97.7342 10.9057C102.224 -2.91393 121.776 -2.91389 126.266 10.9058L142.309 60.2827C144.317 66.463 150.077 70.6474 156.575 70.6474H208.493C223.024 70.6474 229.066 89.2417 217.31 97.7827L175.307 128.299C170.05 132.119 167.85 138.889 169.858 145.07L185.902 194.447C190.392 208.266 174.575 219.758 162.819 211.217L120.817 180.701C115.559 176.881 108.441 176.881 103.183 180.701L61.1807 211.217C49.425 219.758 33.6078 208.266 38.0981 194.447L54.1416 145.07C56.1497 138.889 53.9498 132.119 48.6925 128.299L6.68997 97.7827C-5.06573 89.2417 0.975932 70.6474 15.5068 70.6474H67.4248C73.9232 70.6474 79.6825 66.463 81.6906 60.2827L97.7342 10.9057Z" fill="#C4C4C4"/>
</svg>
