<svg width="248" height="237" viewBox="0 0 248 237" fill="none" xmlns="http://www.w3.org/2000/svg">
<path d="M115.44 6.34344C118.135 -1.94835 129.865 -1.94834 132.56 6.34346L155.656 77.4286C156.861 81.1368 160.317 83.6474 164.216 83.6474H238.959C247.678 83.6474 251.303 94.804 244.249 99.9286L183.781 143.862C180.626 146.153 179.306 150.216 180.511 153.924L203.608 225.009C206.302 233.301 196.812 240.196 189.759 235.071L129.29 191.138C126.136 188.847 121.864 188.847 118.71 191.138L58.2413 235.071C51.1879 240.196 41.6976 233.301 44.3917 225.009L67.4887 153.924C68.6936 150.216 67.3736 146.153 64.2192 143.862L3.75059 99.9286C-3.30283 94.804 0.322162 83.6474 9.04067 83.6474H83.784C87.6831 83.6474 91.1387 81.1368 92.3435 77.4286L115.44 6.34344Z" fill="#603224"/>
</svg>
